<svg width="2062" height="1567" viewBox="0 0 2062 1567" fill="none" xmlns="http://www.w3.org/2000/svg">
<path opacity="0.0144928" d="M1528.65 1318.39L1708.23 1132.66C1712.45 1128.3 1714.77 1122.45 1714.7 1116.39L1710.18 742.15C1710.13 737.383 1708.59 732.752 1705.78 728.897L1513.77 464.946C1508.68 457.956 1500.11 454.407 1491.57 455.759L1270.02 490.848C1261.49 492.201 1254.43 498.225 1251.75 506.444L1150.7 816.814C1149.22 821.347 1149.19 826.227 1150.61 830.778L1261.96 1188.1C1263.77 1193.88 1267.78 1198.73 1273.14 1201.57L1501.33 1322.72C1510.38 1327.52 1521.52 1325.76 1528.65 1318.39Z" stroke="url(#paint0_linear_474_1031)" stroke-width="4"/>
<path opacity="0.0289855" d="M1487.44 1318.48L1675.4 1143.98C1679.85 1139.85 1682.48 1134.13 1682.73 1128.07L1697.85 757.585C1698.04 752.808 1696.75 748.088 1694.13 744.083L1517.38 473.071C1512.66 465.84 1504.29 461.859 1495.71 462.761L1273.98 486.066C1265.4 486.968 1258.04 492.602 1254.93 500.655L1138.39 802.494C1136.66 806.955 1136.37 811.842 1137.56 816.474L1229.37 1175.72C1230.88 1181.6 1234.64 1186.65 1239.86 1189.76L1459.99 1321.37C1468.76 1326.61 1479.95 1325.44 1487.44 1318.48Z" stroke="url(#paint1_linear_474_1031)" stroke-width="4"/>
<path opacity="0.0434783" d="M1446.48 1317.33L1642.14 1154.43C1646.81 1150.54 1649.75 1144.96 1650.32 1138.9L1684.66 773.202C1685.11 768.427 1684.05 763.631 1681.64 759.485L1520.36 482.279C1516.02 474.827 1507.89 470.426 1499.28 470.877L1277.99 482.474C1269.38 482.925 1261.75 488.153 1258.22 496.017L1126.79 788.563C1124.83 792.938 1124.28 797.818 1125.23 802.521L1197.6 1162.63C1198.8 1168.59 1202.31 1173.83 1207.37 1177.21L1418.98 1318.77C1427.45 1324.44 1438.65 1323.85 1446.48 1317.33Z" stroke="url(#paint2_linear_474_1031)" stroke-width="4"/>
<path opacity="0.057971" d="M1405.84 1314.95L1608.49 1163.97C1613.38 1160.34 1616.62 1154.91 1617.51 1148.89L1670.61 788.952C1671.31 784.193 1670.51 779.333 1668.3 775.057L1522.66 492.526C1518.71 484.873 1510.82 480.064 1502.21 480.064L1281.98 480.064C1273.37 480.064 1265.49 484.873 1261.54 492.526L1115.9 775.057C1113.69 779.333 1112.88 784.193 1113.59 788.952L1166.69 1148.89C1167.58 1154.91 1170.82 1160.34 1175.7 1163.97L1378.36 1314.95C1386.51 1321.02 1397.69 1321.02 1405.84 1314.95Z" stroke="url(#paint3_linear_474_1031)" stroke-width="4"/>
<path opacity="0.0724638" d="M1365.58 1311.38L1574.52 1172.61C1579.6 1169.23 1583.13 1163.98 1584.34 1158L1655.7 804.788C1656.66 800.058 1656.1 795.146 1654.11 790.75L1524.22 503.763C1520.67 495.93 1513.05 490.729 1504.47 490.279L1285.89 478.824C1277.31 478.374 1269.19 482.75 1264.84 490.17L1105.66 762.007C1103.22 766.171 1102.16 770.998 1102.61 775.802L1136.66 1134.54C1137.24 1140.61 1140.2 1146.2 1144.9 1150.09L1338.19 1309.94C1346.01 1316.4 1357.13 1316.99 1365.58 1311.38Z" stroke="url(#paint4_linear_474_1031)" stroke-width="4"/>
<path opacity="0.0869565" d="M1325.75 1306.65L1540.27 1180.32C1545.54 1177.22 1549.35 1172.15 1550.88 1166.24L1639.93 820.663C1641.14 815.974 1640.84 811.024 1639.07 806.518L1524.99 515.942C1521.85 507.949 1514.52 502.37 1505.98 501.473L1289.66 478.737C1281.12 477.839 1272.79 481.773 1268.06 488.938L1096.06 749.445C1093.39 753.485 1092.07 758.264 1092.28 763.102L1107.54 1119.64C1107.8 1125.75 1110.48 1131.49 1114.98 1135.62L1298.55 1303.79C1306 1310.62 1317.04 1311.78 1325.75 1306.65Z" stroke="url(#paint5_linear_474_1031)" stroke-width="4"/>
<path opacity="0.101449" d="M1286.43 1300.79L1505.8 1187.11C1511.23 1184.29 1515.32 1179.43 1517.16 1173.59L1623.31 836.528C1624.77 831.895 1624.72 826.92 1623.18 822.314L1524.93 529.009C1522.21 520.879 1515.19 514.939 1506.72 513.598L1293.23 479.783C1284.76 478.442 1276.25 481.923 1271.14 488.813L1087.07 737.402C1084.18 741.305 1082.6 746.024 1082.55 750.881L1079.35 1104.25C1079.3 1110.37 1081.68 1116.26 1085.98 1120.61L1259.48 1296.52C1266.55 1303.7 1277.48 1305.43 1286.43 1300.79Z" stroke="url(#paint6_linear_474_1031)" stroke-width="4"/>
<path opacity="0.115942" d="M1247.67 1293.85L1471.15 1192.96C1476.74 1190.44 1481.08 1185.8 1483.23 1180.06L1605.84 852.339C1607.54 847.774 1607.76 842.786 1606.45 838.092L1524 542.912C1521.7 534.666 1515.01 528.382 1506.63 526.602L1296.53 481.942C1288.15 480.162 1279.48 483.181 1274.02 489.777L1078.65 725.905C1075.54 729.66 1073.71 734.304 1073.41 739.168L1052.12 1088.42C1051.75 1094.54 1053.83 1100.55 1057.91 1105.13L1221.03 1288.19C1227.72 1295.69 1238.51 1297.98 1247.67 1293.85Z" stroke="url(#paint7_linear_474_1031)" stroke-width="4"/>
<path opacity="0.130435" d="M1209.51 1285.86L1436.38 1197.89C1442.1 1195.67 1446.7 1191.26 1449.15 1185.63L1587.52 868.047C1589.47 863.565 1589.95 858.577 1588.87 853.807L1522.16 557.594C1520.28 549.254 1513.94 542.644 1505.68 540.431L1299.5 485.187C1291.25 482.974 1282.44 485.524 1276.65 491.808L1070.77 714.98C1067.45 718.574 1065.37 723.131 1064.82 727.989L1025.86 1072.21C1025.17 1078.31 1026.94 1084.43 1030.79 1089.21L1183.27 1278.83C1189.55 1286.64 1200.17 1289.49 1209.51 1285.86Z" stroke="url(#paint8_linear_474_1031)" stroke-width="4"/>
<path opacity="0.144928" d="M1172.02 1276.87L1401.53 1201.89C1407.38 1199.98 1412.21 1195.81 1414.96 1190.32L1568.38 883.61C1570.57 879.222 1571.31 874.248 1570.47 869.413L1519.38 572.997C1517.93 564.585 1511.94 557.667 1503.82 555.03L1302.11 489.489C1293.99 486.851 1285.08 488.927 1278.96 494.88L1063.39 704.652C1059.88 708.074 1057.55 712.529 1056.74 717.369L1000.58 1055.68C999.573 1061.74 1001.04 1067.95 1004.64 1072.93L1146.25 1268.5C1152.11 1276.59 1162.52 1279.98 1172.02 1276.87Z" stroke="url(#paint9_linear_474_1031)" stroke-width="4"/>
<path opacity="0.15942" d="M1135.24 1266.93L1366.67 1204.97C1372.61 1203.38 1377.67 1199.47 1380.72 1194.12L1548.42 898.981C1550.85 894.701 1551.85 889.754 1551.26 884.867L1515.61 589.061C1514.6 580.599 1508.98 573.395 1501.02 570.341L1304.28 494.818C1296.32 491.763 1287.33 493.36 1280.91 498.966L1056.49 694.942C1052.78 698.18 1050.21 702.522 1049.15 707.33L976.297 1038.87C974.976 1044.89 976.12 1051.18 979.475 1056.34L1110 1257.24C1115.43 1265.6 1125.61 1269.51 1135.24 1266.93Z" stroke="url(#paint10_linear_474_1031)" stroke-width="4"/>
<path opacity="0.173913" d="M1099.21 1256.08L1331.82 1207.13C1337.86 1205.86 1343.13 1202.22 1346.46 1197.03L1527.66 914.118C1530.32 909.959 1531.58 905.052 1531.24 900.124L1510.85 605.727C1510.26 597.237 1505.03 589.766 1497.26 586.305L1305.97 501.139C1298.19 497.677 1289.14 498.792 1282.44 504.035L1050.02 685.871C1046.13 688.915 1043.32 693.13 1042.01 697.893L953.015 1021.86C951.382 1027.81 952.205 1034.16 955.299 1039.49L1074.58 1245.11C1079.56 1253.7 1089.49 1258.13 1099.21 1256.08Z" stroke="url(#paint11_linear_474_1031)" stroke-width="4"/>
<path opacity="0.188406" d="M1063.97 1244.38L1297.06 1208.39C1303.16 1207.45 1308.63 1204.09 1312.23 1199.07L1506.12 928.979C1509.01 924.952 1510.52 920.099 1510.43 915.143L1505.05 622.932C1504.89 614.437 1500.06 606.72 1492.49 602.863L1307.13 508.416C1299.56 504.558 1290.48 505.189 1283.51 510.055L1043.95 677.456C1039.88 680.295 1036.84 684.371 1035.29 689.077L930.74 1004.7C928.797 1010.56 929.295 1016.96 932.121 1022.45L1040.01 1232.17C1044.54 1240.97 1054.19 1245.89 1063.97 1244.38Z" stroke="url(#paint12_linear_474_1031)" stroke-width="4"/>
<path opacity="0.202899" d="M1029.58 1231.87L1262.41 1208.76C1268.57 1208.15 1274.22 1205.08 1278.09 1200.26L1483.82 943.523C1486.93 939.641 1488.7 934.855 1488.86 929.883L1498.2 640.614C1498.47 632.136 1494.06 624.195 1486.71 619.953L1307.71 516.61C1300.37 512.368 1291.28 512.515 1284.08 516.991L1038.23 669.712C1034.01 672.338 1030.75 676.262 1028.94 680.897L909.468 987.435C907.221 993.2 907.392 999.627 909.941 1005.26L1006.35 1218.46C1010.41 1227.45 1019.76 1232.84 1029.58 1231.87Z" stroke="url(#paint13_linear_474_1031)" stroke-width="4"/>
<path opacity="0.217391" d="M996.049 1218.61L1227.93 1208.25C1234.12 1207.98 1239.94 1205.21 1244.06 1200.59L1460.78 957.711C1464.11 953.985 1466.13 949.279 1466.54 944.304L1490.28 658.71C1490.98 650.27 1486.99 642.127 1479.89 637.515L1307.68 525.68C1300.57 521.067 1291.51 520.731 1284.09 524.805L1032.84 662.655C1028.46 665.057 1024.99 668.818 1022.94 673.37L889.201 970.139C886.655 975.789 886.497 982.228 888.762 987.996L973.615 1204.04C977.21 1213.19 986.226 1219.05 996.049 1218.61Z" stroke="url(#paint14_linear_474_1031)" stroke-width="4"/>
<path opacity="0.231884" d="M963.426 1204.66L1193.66 1206.89C1199.87 1206.95 1205.84 1204.5 1210.21 1200.09L1437.03 971.504C1440.56 967.946 1442.83 963.334 1443.5 958.367L1481.29 677.155C1482.41 668.776 1478.85 660.454 1472.01 655.485L1306.98 535.582C1300.14 530.613 1291.12 529.796 1283.5 533.457L1027.73 656.295C1023.21 658.465 1019.53 662.051 1017.24 666.507L869.93 952.86C867.09 958.381 866.602 964.815 868.578 970.7L941.844 1188.98C944.962 1198.27 953.626 1204.57 963.426 1204.66Z" stroke="url(#paint15_linear_474_1031)" stroke-width="4"/>
<path opacity="0.246377" d="M931.733 1190.07L1159.65 1204.68C1165.86 1205.08 1171.96 1202.95 1176.57 1198.77L1412.59 984.866C1416.32 981.488 1418.83 976.981 1419.76 972.036L1471.2 695.887C1472.75 687.589 1469.62 679.112 1463.06 673.8L1305.58 546.272C1299.02 540.961 1290.08 539.669 1282.29 542.906L1022.87 650.642C1018.22 652.571 1014.34 655.97 1011.81 660.318L851.645 935.657C848.518 941.032 847.702 947.445 849.381 953.433L911.059 1173.33C913.697 1182.74 921.986 1189.45 931.733 1190.07Z" stroke="url(#paint16_linear_474_1031)" stroke-width="4"/>
<path opacity="0.26087" d="M900.997 1174.91L1125.94 1201.66C1132.12 1202.4 1138.34 1200.6 1143.17 1196.66L1387.49 997.762C1391.41 994.575 1394.17 990.187 1395.34 985.276L1460.02 714.841C1461.98 706.646 1459.3 698.036 1453.04 692.398L1303.45 557.704C1297.19 552.066 1288.34 550.303 1280.4 553.109L1018.21 645.703C1013.45 647.384 1009.37 650.585 1006.61 654.813L834.336 918.583C830.93 923.799 829.785 930.174 831.163 936.249L881.284 1157.16C883.437 1166.65 891.332 1173.76 900.997 1174.91Z" stroke="url(#paint17_linear_474_1031)" stroke-width="4"/>
<path opacity="0.275362" d="M871.24 1159.23L1092.56 1197.85C1098.71 1198.93 1105.03 1197.45 1110.07 1193.78L1361.77 1010.16C1365.86 1007.17 1368.86 1002.92 1370.28 998.053L1447.74 733.953C1450.11 725.882 1447.88 717.163 1441.94 711.216L1300.55 569.829C1294.6 563.881 1285.88 561.655 1277.81 564.022L1013.71 641.482C1008.85 642.909 1004.59 645.902 1001.6 649.997L817.988 901.693C814.31 906.734 812.838 913.054 813.911 919.202L852.537 1140.52C854.204 1150.08 861.686 1157.56 871.24 1159.23Z" stroke="url(#paint18_linear_474_1031)" stroke-width="4"/>
<path opacity="0.289855" d="M842.479 1143.08L1059.56 1193.28C1065.65 1194.68 1072.06 1193.55 1077.29 1190.14L1335.44 1022.03C1339.71 1019.25 1342.93 1015.14 1344.61 1010.33L1434.37 753.16C1437.13 745.234 1435.36 736.43 1429.74 730.191L1296.85 582.596C1291.23 576.357 1282.66 573.675 1274.49 575.598L1009.34 637.983C1004.39 639.149 999.96 641.924 996.753 645.875L802.58 885.038C798.639 889.891 796.844 896.14 797.608 902.345L824.832 1123.49C826.013 1133.08 833.064 1140.91 842.479 1143.08Z" stroke="url(#paint19_linear_474_1031)" stroke-width="4"/>
<path opacity="0.304348" d="M814.73 1126.54L1026.98 1187.96C1032.99 1189.7 1039.46 1188.91 1044.88 1185.78L1308.56 1033.34C1312.98 1030.78 1316.43 1026.83 1318.35 1022.09L1419.9 772.401C1423.06 764.638 1421.75 755.773 1416.47 749.261L1292.33 595.957C1287.06 589.445 1278.66 586.316 1270.41 587.79L1005.06 635.207C1000.03 636.106 995.442 638.654 992.021 642.449L788.093 868.67C783.899 873.322 781.784 879.483 782.236 885.73L798.183 1106.11C798.878 1115.71 805.481 1123.87 814.73 1126.54Z" stroke="url(#paint20_linear_474_1031)" stroke-width="4"/>
<path opacity="0.318841" d="M788.002 1109.66L994.839 1181.94C1000.76 1184.01 1007.27 1183.57 1012.87 1180.72L1281.14 1044.07C1285.72 1041.74 1289.38 1037.95 1291.55 1033.3L1404.36 791.611C1407.89 784.032 1407.04 775.131 1402.12 768.364L1286.96 609.858C1282.04 603.092 1273.84 599.527 1265.54 600.55L1000.82 633.153C995.732 633.78 990.996 636.091 987.369 639.719L774.501 852.638C770.065 857.076 767.634 863.133 767.772 869.406L772.595 1088.45C772.806 1098.04 778.947 1106.5 788.002 1109.66Z" stroke="url(#paint21_linear_474_1031)" stroke-width="4"/>
<path opacity="0.333333" d="M762.305 1092.5L963.184 1175.24C968.996 1177.63 975.535 1177.54 981.28 1174.99L1253.24 1054.18C1257.95 1052.09 1261.81 1048.48 1264.23 1043.93L1387.74 810.732C1391.65 803.355 1391.25 794.441 1386.7 787.44L1280.73 624.248C1276.18 617.247 1268.2 613.259 1259.87 613.828L996.598 631.816C991.459 632.167 986.587 634.233 982.762 637.683L761.781 836.991C757.113 841.201 754.372 847.139 754.195 853.422L748.073 1070.59C747.804 1080.14 753.469 1088.86 762.305 1092.5Z" stroke="url(#paint22_linear_474_1031)" stroke-width="4"/>
<path opacity="0.347826" d="M737.641 1075.12L932.04 1167.89C937.724 1170.61 944.271 1170.87 950.155 1168.62L1224.88 1063.66C1229.71 1061.82 1233.78 1058.39 1236.42 1053.95L1370.07 829.703C1374.33 822.547 1374.4 813.643 1370.23 806.429L1273.61 639.073C1269.44 631.858 1261.7 627.46 1253.37 627.576L992.344 631.192C987.172 631.263 982.175 633.076 978.16 636.338L749.902 821.774C745.013 825.745 741.967 831.546 741.475 837.825L724.618 1052.57C723.873 1062.05 729.05 1071.02 737.641 1075.12Z" stroke="url(#paint23_linear_474_1031)" stroke-width="4"/>
<path opacity="0.362319" d="M714.013 1057.59L901.438 1159.94C906.976 1162.97 913.513 1163.58 919.519 1161.65L1196.1 1072.49C1201.04 1070.9 1205.3 1067.68 1208.18 1063.35L1351.37 848.467C1355.98 841.548 1356.49 832.679 1352.72 825.271L1265.59 654.281C1261.82 646.873 1254.34 642.078 1246.03 641.741L988.025 631.272C982.835 631.062 977.726 632.615 973.53 635.678L738.833 807.03C733.737 810.751 730.393 816.402 729.585 822.66L702.226 1034.45C701.012 1043.86 705.692 1053.04 714.013 1057.59Z" stroke="url(#paint24_linear_474_1031)" stroke-width="4"/>
<path opacity="0.376812" d="M691.416 1039.95L871.403 1151.41C876.778 1154.74 883.286 1155.71 889.397 1154.1L1166.94 1080.65C1171.98 1079.31 1176.42 1076.3 1179.53 1072.11L1331.65 866.965C1336.59 860.301 1337.56 851.491 1334.18 843.911L1256.67 669.816C1253.3 662.236 1246.1 657.062 1237.84 656.275L983.603 632.049C978.409 631.554 973.201 632.84 968.835 635.695L728.539 792.802C723.248 796.262 719.614 801.747 718.491 807.968L680.891 1016.31C679.214 1025.6 683.388 1034.98 691.416 1039.95Z" stroke="url(#paint25_linear_474_1031)" stroke-width="4"/>
<path opacity="0.391304" d="M669.845 1022.27L841.961 1142.35C847.155 1145.97 853.615 1147.3 859.816 1146L1137.44 1088.12C1142.57 1087.05 1147.18 1084.26 1150.51 1080.21L1310.94 885.145C1316.2 878.75 1317.62 870.022 1314.65 862.293L1246.83 685.626C1243.86 677.896 1236.97 672.358 1228.79 671.125L979.042 633.51C973.86 632.73 968.567 633.742 964.039 636.38L718.986 779.13C713.513 782.318 709.597 787.623 708.162 793.792L660.603 998.196C658.472 1007.36 662.132 1016.89 669.845 1022.27Z" stroke="url(#paint26_linear_474_1031)" stroke-width="4"/>
<path opacity="0.405797" d="M649.29 1004.61L813.132 1132.79C818.131 1136.7 824.523 1138.37 830.795 1137.41L1107.65 1094.88C1112.85 1094.08 1117.62 1091.52 1121.17 1087.63L1289.27 902.952C1294.83 896.842 1296.69 888.219 1294.14 880.362L1236.07 701.657C1233.52 693.8 1226.95 687.915 1218.86 686.241L974.307 635.643C969.153 634.576 963.788 635.31 959.11 637.722L710.135 766.051C704.494 768.958 700.305 774.068 698.56 780.169L641.348 980.17C638.773 989.174 641.914 998.84 649.29 1004.61Z" stroke="url(#paint27_linear_474_1031)" stroke-width="4"/>
<path opacity="0.42029" d="M629.738 987.023L784.937 1122.76C789.724 1126.95 796.03 1128.97 802.357 1128.34L1077.6 1100.94C1082.86 1100.41 1087.78 1098.09 1091.53 1094.36L1266.68 920.336C1272.52 914.525 1274.81 906.03 1272.68 898.068L1224.39 717.855C1222.26 709.893 1216.03 703.681 1208.06 701.573L969.365 638.432C964.253 637.08 958.831 637.53 954.012 639.707L701.947 753.599C696.152 756.217 691.7 761.118 689.648 767.136L623.111 962.288C620.101 971.115 622.719 980.884 629.738 987.023Z" stroke="url(#paint28_linear_474_1031)" stroke-width="4"/>
<path opacity="0.434783" d="M611.176 969.564L757.395 1112.31C761.954 1116.76 768.155 1119.12 774.52 1118.83L1047.33 1106.27C1052.64 1106.02 1057.7 1103.95 1061.65 1100.4L1243.18 937.248C1249.3 931.75 1252.02 923.404 1250.31 915.359L1211.79 734.168C1210.08 726.123 1204.21 719.603 1196.38 717.069L964.182 641.861C959.129 640.224 953.664 640.387 948.717 642.322L694.381 741.807C688.447 744.128 683.742 748.806 681.387 754.727L605.871 944.607C602.44 953.234 604.532 963.079 611.176 969.564Z" stroke="url(#paint29_linear_474_1031)" stroke-width="4"/>
<path opacity="0.449275" d="M593.582 952.288L730.518 1101.48C734.835 1106.19 740.913 1108.88 747.297 1108.93L1016.89 1110.87C1022.23 1110.91 1027.41 1109.09 1031.55 1105.73L1218.83 953.641C1225.2 948.468 1228.33 940.293 1227.05 932.189L1198.28 750.544C1197 742.439 1191.49 735.632 1183.83 732.681L958.727 645.912C953.746 643.992 948.254 643.865 943.19 645.55L687.392 730.704C681.335 732.721 676.388 737.164 673.735 742.972L589.605 927.18C585.765 935.588 587.331 945.478 593.582 952.288Z" stroke="url(#paint30_linear_474_1031)" stroke-width="4"/>
<path opacity="0.463768" d="M576.936 935.246L704.321 1090.31C708.382 1095.25 714.319 1098.28 720.704 1098.67L986.314 1114.74C991.668 1115.06 996.966 1113.51 1001.29 1110.34L1193.66 969.472C1200.26 964.636 1203.8 956.653 1202.94 948.512L1183.86 766.93C1183 758.789 1177.88 751.716 1170.42 748.358L952.968 650.565C948.077 648.365 942.571 647.944 937.402 649.374L680.938 720.319C674.772 722.024 669.595 726.221 666.651 731.9L574.289 910.06C570.054 918.229 571.095 928.136 576.936 935.246Z" stroke="url(#paint31_linear_474_1031)" stroke-width="4"/>
<path opacity="0.478261" d="M561.215 918.489L678.816 1078.83C682.607 1084 688.384 1087.36 694.753 1088.08L955.649 1117.88C961.004 1118.49 966.403 1117.2 970.904 1114.24L1167.7 984.7C1174.53 980.211 1178.46 972.44 1178.03 964.285L1168.54 783.278C1168.11 775.123 1163.39 767.805 1156.14 764.053L946.879 655.799C942.092 653.323 936.588 652.606 931.327 653.774L674.974 710.674C668.716 712.063 663.321 716.001 660.091 721.538L559.894 893.297C555.279 901.208 555.798 911.104 561.215 918.489Z" stroke="url(#paint32_linear_474_1031)" stroke-width="4"/>
<path opacity="0.492754" d="M546.389 902.066L654.008 1067.1C657.517 1072.48 663.116 1076.15 669.451 1077.21L924.934 1120.28C930.274 1121.18 935.761 1120.16 940.428 1117.41L1141.01 999.286C1148.03 995.152 1152.34 987.614 1152.34 979.468L1152.34 799.537C1152.34 791.391 1148.03 783.852 1141.01 779.718L940.428 661.591C935.761 658.842 930.274 657.829 924.934 658.729L669.451 701.792C663.116 702.859 657.517 706.527 654.008 711.908L546.389 876.939C541.41 884.574 541.41 894.43 546.389 902.066Z" stroke="url(#paint33_linear_474_1031)" stroke-width="4"/>
<path opacity="0.507246" d="M532.431 886.022L629.905 1055.14C633.119 1060.71 638.524 1064.69 644.806 1066.1L894.21 1121.94C899.521 1123.13 905.083 1122.4 909.905 1119.87L1113.63 1013.19C1120.82 1009.42 1125.5 1002.14 1125.93 994.023L1135.27 815.659C1135.7 807.545 1131.81 799.808 1125.05 795.307L933.591 667.917C929.059 664.901 923.605 663.591 918.198 664.218L664.323 693.69C657.929 694.433 652.138 697.821 648.358 703.032L533.741 861.031C528.414 868.374 527.901 878.163 532.431 886.022Z" stroke="url(#paint34_linear_474_1031)" stroke-width="4"/>
<path opacity="0.521739" d="M519.308 870.403L606.509 1043C609.418 1048.75 614.612 1053.03 620.823 1054.77L863.517 1122.88C868.785 1124.36 874.408 1123.92 879.375 1121.62L1085.59 1026.39C1092.95 1022.99 1097.98 1015.97 1098.82 1007.91L1117.36 831.599C1118.2 823.539 1114.75 815.628 1108.25 810.775L926.343 674.752C921.961 671.475 916.555 669.868 911.094 670.219L659.541 686.386C653.103 686.8 647.135 689.898 643.093 694.926L521.913 845.618C516.256 852.653 515.237 862.346 519.308 870.403Z" stroke="url(#paint35_linear_474_1031)" stroke-width="4"/>
<path opacity="0.536232" d="M506.987 855.25L583.822 1030.72C586.416 1036.64 591.381 1041.2 597.504 1043.27L832.897 1123.11C838.106 1124.87 843.775 1124.71 848.877 1122.66L1056.96 1038.85C1064.46 1035.83 1069.82 1029.1 1071.08 1021.11L1098.61 847.311C1099.88 839.328 1096.86 831.267 1090.66 826.078L918.66 682.069C914.443 678.538 909.1 676.636 903.6 676.706L655.057 679.892C648.593 679.975 642.462 682.775 638.166 687.605L510.869 830.74C504.9 837.451 503.384 847.023 506.987 855.25Z" stroke="url(#paint36_linear_474_1031)" stroke-width="4"/>
<path opacity="0.550725" d="M495.43 840.604L561.844 1018.33C564.111 1024.4 568.834 1029.23 574.85 1031.64L802.388 1122.62C807.523 1124.67 813.225 1124.8 818.451 1122.99L1027.78 1050.54C1035.39 1047.9 1041.07 1041.47 1042.75 1033.59L1079.06 862.752C1080.74 854.867 1078.16 846.681 1072.28 841.174L910.52 689.842C906.482 686.065 901.218 683.868 895.692 683.655L650.822 674.218C644.348 673.968 638.069 676.461 633.528 681.083L500.567 816.435C494.305 822.809 492.302 832.233 495.43 840.604Z" stroke="url(#paint37_linear_474_1031)" stroke-width="4"/>
<path opacity="0.565217" d="M484.601 826.5L540.57 1005.89C542.504 1012.09 546.968 1017.18 552.86 1019.91L772.031 1121.43C777.076 1123.76 782.796 1124.19 788.134 1122.64L998.091 1061.44C1005.81 1059.19 1011.79 1053.07 1013.87 1045.31L1058.73 877.88C1060.81 870.116 1058.69 861.829 1053.13 856.023L901.904 698.042C898.06 694.026 892.89 691.538 887.353 691.039L646.787 669.371C640.32 668.788 633.908 670.966 629.134 675.367L490.968 802.739C484.432 808.764 481.954 818.015 484.601 826.5Z" stroke="url(#paint38_linear_474_1031)" stroke-width="4"/>
<path opacity="0.57971" d="M474.459 812.974L519.997 993.423C521.589 999.733 525.78 1005.07 531.53 1008.12L741.861 1119.55C746.802 1122.17 752.526 1122.9 757.964 1121.6L967.957 1071.52C975.754 1069.66 982.02 1063.88 984.496 1056.26L1037.65 892.656C1040.13 885.034 1038.46 876.672 1033.25 870.585L892.793 706.64C889.156 702.395 884.097 699.619 878.562 698.833L642.901 665.355C636.458 664.44 629.929 666.296 624.932 670.465L482.026 789.685C475.237 795.349 472.296 804.402 474.459 812.974Z" stroke="url(#paint39_linear_474_1031)" stroke-width="4"/>
<path opacity="0.594203" d="M464.962 800.058L500.115 980.971C501.359 987.373 505.263 992.946 510.854 996.303L711.917 1117.01C716.737 1119.9 722.451 1120.93 727.978 1119.9L937.426 1080.78C945.281 1079.31 951.812 1073.87 954.676 1066.41L1015.85 907.043C1018.72 899.583 1017.5 891.171 1012.65 884.824L883.171 715.606C879.754 711.141 874.82 708.082 869.302 707.007L639.116 662.171C632.714 660.925 626.084 662.454 620.875 666.38L473.697 777.303C466.676 782.595 463.285 791.427 464.962 800.058Z" stroke="url(#paint40_linear_474_1031)" stroke-width="4"/>
<path opacity="0.608696" d="M456.07 787.78L480.917 968.571C481.807 975.047 485.41 980.838 490.827 984.497L682.233 1113.81C686.919 1116.98 692.607 1118.31 698.21 1117.54L906.55 1089.2C914.444 1088.12 921.22 1083.04 924.461 1075.76L993.362 921.005C996.602 913.727 995.846 905.29 991.362 898.705L873.022 724.91C869.84 720.235 865.047 716.897 859.559 715.534L635.383 659.819C629.039 658.242 622.324 659.44 616.916 663.112L465.936 765.62C458.703 770.531 454.879 779.118 456.07 787.78Z" stroke="url(#paint41_linear_474_1031)" stroke-width="4"/>
<path opacity="0.623188" d="M447.736 776.167L462.389 956.259C462.921 962.789 466.212 968.782 471.437 972.735L652.845 1109.98C657.381 1113.41 663.029 1115.04 668.696 1114.56L875.382 1096.75C883.294 1096.07 890.296 1091.36 893.901 1084.28L970.214 934.509C973.82 927.433 973.519 918.997 969.42 912.195L862.334 734.519C859.398 729.648 854.761 726.037 849.318 724.384L631.653 658.293C625.384 656.39 618.6 657.25 613.005 660.659L458.695 754.659C451.271 759.181 447.031 767.503 447.736 776.167Z" stroke="url(#paint42_linear_474_1031)" stroke-width="4"/>
<path opacity="0.637681" d="M439.915 765.243L444.52 944.07C444.689 950.635 447.656 956.814 452.674 961.051L623.785 1105.54C628.158 1109.23 633.749 1111.16 639.467 1110.95L843.974 1103.45C851.885 1103.16 859.091 1098.82 863.05 1091.97L946.444 947.525C950.402 940.669 950.556 932.259 946.852 925.263L851.095 744.404C848.417 739.347 843.951 735.469 838.567 733.529L627.878 657.587C621.7 655.361 614.865 655.881 609.096 659.017L451.924 744.443C444.332 748.569 439.693 756.604 439.915 765.243Z" stroke="url(#paint43_linear_474_1031)" stroke-width="4"/>
<path opacity="0.652174" d="M432.563 755.027L427.293 932.038C427.098 938.618 429.73 944.965 434.524 949.475L595.085 1100.51C599.279 1104.46 604.8 1106.69 610.557 1106.76L812.38 1109.28C820.27 1109.38 827.659 1105.43 831.957 1098.81L922.087 960.023C926.384 953.406 926.99 945.047 923.69 937.879L839.295 754.532C836.888 749.302 832.606 745.165 827.297 742.938L624.011 657.691C617.941 655.145 611.072 655.322 605.141 658.177L445.576 734.988C437.837 738.713 432.818 746.441 432.563 755.027Z" stroke="url(#paint44_linear_474_1031)" stroke-width="4"/>
<path opacity="0.666667" d="M425.63 745.539L410.692 920.197C410.13 926.77 412.418 933.269 416.974 938.04L566.775 1094.92C570.776 1099.11 576.211 1101.63 581.994 1101.99L780.651 1114.24C788.5 1114.73 796.053 1111.17 800.675 1104.81L897.181 971.978C901.803 965.616 902.854 957.334 899.969 950.019L826.926 764.87C824.8 759.481 820.719 755.093 815.497 752.582L620.006 658.591C614.06 655.732 607.172 655.565 601.094 658.131L439.601 726.31C431.736 729.63 426.357 737.033 425.63 745.539Z" stroke="url(#paint45_linear_474_1031)" stroke-width="4"/>
<path opacity="0.681159" d="M419.072 736.792L394.699 908.576C393.77 915.124 395.704 921.755 400.008 926.776L538.885 1088.79C542.679 1093.21 548.013 1096.03 553.808 1096.68L748.843 1118.34C756.631 1119.2 764.324 1116.04 769.256 1109.95L871.765 983.367C876.696 977.277 878.188 969.095 875.722 961.656L813.984 775.388C812.15 769.853 808.282 765.222 803.163 762.431L615.818 660.273C610.012 657.107 603.124 656.594 596.912 658.864L433.949 718.42C425.981 721.332 420.263 728.393 419.072 736.792Z" stroke="url(#paint46_linear_474_1031)" stroke-width="4"/>
<path opacity="0.695652" d="M412.839 728.798L379.293 897.207C377.998 903.709 379.571 910.453 383.609 915.71L511.44 1082.15C515.015 1086.8 520.233 1089.91 526.027 1090.84L717.005 1121.57C724.714 1122.81 732.526 1120.06 737.751 1114.26L845.878 994.168C851.102 988.365 853.026 980.308 850.987 972.771L800.463 786.051C798.93 780.387 795.29 775.522 790.288 772.454L611.402 662.72C605.752 659.254 598.88 658.394 592.549 660.362L428.569 711.328C420.521 713.829 414.486 720.532 412.839 728.798Z" stroke="url(#paint47_linear_474_1031)" stroke-width="4"/>
<path opacity="0.710145" d="M406.886 721.567L364.454 886.118C362.794 892.553 363.999 899.391 367.758 904.871L484.468 1075.02C487.809 1079.89 492.897 1083.29 498.677 1084.52L685.189 1123.95C692.801 1125.56 700.71 1123.21 706.211 1117.71L819.561 1004.36C825.062 998.862 827.409 990.953 825.8 983.342L786.363 796.83C785.141 791.05 781.742 785.962 776.87 782.621L606.718 665.911C601.238 662.152 594.4 660.947 587.965 662.606L423.414 705.038C415.307 707.129 408.976 713.46 406.886 721.567Z" stroke="url(#paint48_linear_474_1031)" stroke-width="4"/>
<path opacity="0.724638" d="M401.161 715.103L350.156 875.335C348.135 881.683 348.966 888.595 352.433 894.283L457.989 1067.45C461.085 1072.53 466.027 1076.21 471.779 1077.72L653.445 1125.49C660.94 1127.46 668.924 1125.52 674.683 1120.34L792.852 1013.94C798.611 1008.75 801.372 1001.01 800.195 993.353L771.68 807.689C770.777 801.811 767.632 796.511 762.905 792.901L601.721 669.823C596.427 665.78 589.64 664.231 583.116 665.577L418.43 699.554C410.286 701.234 403.683 707.18 401.161 715.103Z" stroke="url(#paint49_linear_474_1031)" stroke-width="4"/>
<path opacity="0.73913" d="M395.619 709.411L336.378 864.885C334 871.125 334.452 878.091 337.616 883.972L432.027 1059.45C434.865 1064.73 439.647 1068.69 445.359 1070.49L621.822 1126.19C629.184 1128.52 637.221 1126.99 643.22 1122.13L765.795 1022.88C771.795 1018.02 774.957 1010.47 774.214 1002.79L756.417 818.6C755.841 812.639 752.963 807.137 748.394 803.265L596.375 674.432C591.281 670.115 584.561 668.225 577.963 669.253L413.57 694.875C405.411 696.147 398.56 701.695 395.619 709.411Z" stroke="url(#paint50_linear_474_1031)" stroke-width="4"/>
<path opacity="0.753623" d="M390.213 704.491L323.093 854.79C320.363 860.903 320.432 867.902 323.282 873.959L406.602 1051.07C409.169 1056.53 413.777 1060.76 419.434 1062.85L590.369 1126.09C597.58 1128.75 605.647 1127.64 611.868 1123.12L738.431 1031.17C744.651 1026.65 748.202 1019.32 747.893 1011.64L740.578 829.529C740.336 823.503 737.736 817.812 733.339 813.684L590.641 679.712C585.761 675.129 579.126 672.901 572.469 673.608L408.784 690.998C400.631 691.864 393.556 697.005 390.213 704.491Z" stroke="url(#paint51_linear_474_1031)" stroke-width="4"/>
<path opacity="0.768116" d="M384.895 700.339L310.276 845.073C307.201 851.038 306.884 858.049 309.41 864.267L381.73 1042.34C384.016 1047.97 388.436 1052.46 394.025 1054.84L559.131 1125.18C566.176 1128.18 574.251 1127.48 580.673 1123.31L710.801 1038.81C717.223 1034.64 721.148 1027.54 721.271 1019.89L724.166 840.446C724.264 834.372 721.955 828.506 717.743 824.128L584.483 685.632C579.83 680.796 573.297 678.234 566.596 678.617L404.025 687.916C395.899 688.381 388.625 693.105 384.895 700.339Z" stroke="url(#paint52_linear_474_1031)" stroke-width="4"/>
<path opacity="0.782609" d="M379.62 696.951L297.9 835.754C294.486 841.552 293.782 848.554 295.974 854.915L357.429 1033.28C359.423 1039.07 363.64 1043.82 369.148 1046.49L528.155 1123.51C535.016 1126.83 543.079 1126.54 549.681 1122.73L682.948 1045.79C689.55 1041.97 693.835 1035.14 694.387 1027.53L707.188 851.32C707.631 845.216 705.624 839.187 701.61 834.568L577.868 692.163C573.455 687.085 567.039 684.193 560.311 684.25L399.244 685.62C391.167 685.689 383.718 689.99 379.62 696.951Z" stroke="url(#paint53_linear_474_1031)" stroke-width="4"/>
<path opacity="0.797101" d="M374.341 694.318L285.934 826.851C282.191 832.462 281.1 839.434 282.95 845.921L333.711 1023.94C335.402 1029.87 339.403 1034.87 344.817 1037.82L497.481 1121.09C504.145 1124.72 512.173 1124.83 518.936 1121.39L654.911 1052.1C661.674 1048.66 666.302 1042.1 667.278 1034.57L689.651 862.122C690.444 856.007 688.749 849.829 684.945 844.976L570.763 699.273C566.602 693.963 560.321 690.748 553.581 690.478L394.395 684.1C386.387 683.779 378.788 687.65 374.341 694.318Z" stroke="url(#paint54_linear_474_1031)" stroke-width="4"/>
<path opacity="0.811594" d="M369.013 692.43L274.351 818.38C270.288 823.786 268.81 830.707 270.31 837.301L310.588 1014.35C311.966 1020.41 315.738 1025.65 321.044 1028.88L467.152 1117.94C473.604 1121.88 481.576 1122.39 488.478 1119.31L626.732 1057.76C633.635 1054.69 638.588 1048.42 639.982 1040.99L671.564 872.821C672.711 866.714 671.338 860.403 667.757 855.324L563.138 706.926C559.241 701.398 553.109 697.866 546.373 697.268L389.433 683.339C381.512 682.636 373.791 686.074 369.013 692.43Z" stroke="url(#paint55_linear_474_1031)" stroke-width="4"/>
<path opacity="0.826087" d="M363.596 691.273L263.124 810.357C258.752 815.539 256.889 822.386 258.033 829.069L288.071 1004.54C289.128 1010.71 292.656 1016.19 297.842 1019.7L437.209 1114.11C443.436 1118.32 451.33 1119.23 458.351 1116.54L598.454 1062.75C605.475 1060.06 610.735 1054.1 612.54 1046.8L652.94 883.39C654.443 877.31 653.402 870.88 650.056 865.585L554.967 715.087C551.346 709.355 545.38 705.513 538.663 704.587L384.315 683.32C376.502 682.244 368.682 685.245 363.596 691.273Z" stroke="url(#paint56_linear_474_1031)" stroke-width="4"/>
<path opacity="0.84058" d="M358.046 690.833L252.22 802.794C247.55 807.734 245.305 814.487 246.088 821.24L266.166 994.552C266.892 1000.82 270.165 1006.52 275.218 1010.31L407.687 1109.61C413.675 1114.1 421.473 1115.39 428.59 1113.08L570.115 1067.09C577.232 1064.78 582.779 1059.15 584.985 1052L633.789 893.802C635.651 887.768 634.95 881.235 631.851 875.734L546.224 723.719C542.888 717.797 537.102 713.653 530.421 712.401L378.997 684.025C371.31 682.585 363.418 685.149 358.046 690.833Z" stroke="url(#paint57_linear_474_1031)" stroke-width="4"/>
<path opacity="0.855072" d="M352.322 691.09L241.61 795.702C236.656 800.383 234.033 807.02 234.449 813.823L244.879 984.423C245.267 990.778 248.272 996.687 253.179 1000.74L378.623 1104.48C384.361 1109.23 392.041 1110.9 399.233 1108.97L541.754 1070.78C548.946 1068.86 554.76 1063.57 557.357 1056.59L614.127 904.028C616.347 898.062 615.995 891.441 613.154 885.744L536.887 732.785C533.845 726.686 528.255 722.249 521.625 720.672L373.439 685.432C365.896 683.638 357.957 685.765 352.322 691.09Z" stroke="url(#paint58_linear_474_1031)" stroke-width="4"/>
<path opacity="0.869565" d="M346.385 692.025L231.262 789.09C226.038 793.495 223.043 799.995 223.089 806.829L224.213 974.188C224.256 980.608 226.981 986.718 231.729 991.04L350.048 1098.76C355.525 1103.75 363.068 1105.79 370.313 1104.25L513.409 1073.83C520.655 1072.29 526.715 1067.36 529.69 1060.58L593.966 914.044C596.545 908.165 596.549 901.475 593.977 895.592L526.934 742.244C524.196 735.983 518.816 731.263 512.252 729.364L367.602 687.515C360.22 685.379 352.26 687.072 346.385 692.025Z" stroke="url(#paint59_linear_474_1031)" stroke-width="4"/>
<path opacity="0.884058" d="M340.198 693.615L221.148 782.965C215.668 787.078 212.307 793.42 211.981 800.264L204.171 963.882C203.862 970.351 206.295 976.65 210.872 981.232L321.993 1092.48C327.199 1097.69 334.587 1100.1 341.864 1098.95L485.12 1076.26C492.396 1075.1 498.68 1070.54 502.021 1063.97L573.325 923.825C576.262 918.053 576.629 911.31 574.336 905.253L516.348 752.057C513.922 745.649 508.766 740.656 502.284 738.438L361.45 690.249C354.246 687.784 346.288 689.044 340.198 693.615Z" stroke="url(#paint60_linear_474_1031)" stroke-width="4"/>
<path opacity="0.898551" d="M333.724 695.836L211.236 777.334C205.516 781.139 201.797 787.302 201.096 794.136L184.749 953.542C184.083 960.042 186.213 966.519 190.607 971.355L294.485 1085.69C299.412 1091.11 306.626 1093.86 313.912 1093.09L456.919 1078.06C464.205 1077.3 470.691 1073.11 474.382 1066.78L552.22 933.348C555.512 927.704 556.249 920.926 554.245 914.706L505.113 762.183C503.007 755.644 498.088 750.388 491.702 747.855L354.946 693.606C347.934 690.824 340.004 691.658 333.724 695.836Z" stroke="url(#paint61_linear_474_1031)" stroke-width="4"/>
<path opacity="0.913043" d="M326.932 698.661L201.495 772.197C195.553 775.681 191.485 781.645 190.41 788.448L165.949 943.203C164.919 949.716 166.735 956.358 170.934 961.442L267.552 1078.41C272.19 1084.03 279.215 1087.11 286.488 1086.73L428.845 1079.27C436.119 1078.89 442.782 1075.09 446.808 1069.02L530.67 942.589C534.315 937.094 535.427 930.299 533.722 923.929L493.219 772.579C491.438 765.925 486.769 760.419 480.495 757.576L348.059 697.554C341.255 694.47 333.377 694.883 326.932 698.661Z" stroke="url(#paint62_linear_474_1031)" stroke-width="4"/>
<path opacity="0.927536" d="M319.789 702.063L191.897 767.559C185.75 770.707 181.342 776.451 179.893 783.204L147.763 932.902C146.366 939.409 147.857 946.203 151.85 951.528L241.215 1070.69C245.558 1076.49 252.376 1079.9 259.616 1079.9L400.931 1079.9C408.17 1079.9 414.988 1076.49 419.331 1070.69L508.696 951.528C512.689 946.203 514.18 939.409 512.783 932.902L480.653 783.204C479.204 776.451 474.797 770.707 468.649 767.559L340.757 702.063C334.174 698.692 326.372 698.692 319.789 702.063Z" stroke="url(#paint63_linear_474_1031)" stroke-width="4"/>
<path opacity="0.942029" d="M312.265 706.011L182.41 763.417C176.076 766.217 171.341 771.722 169.519 778.404L130.186 922.673C128.418 929.156 129.574 936.087 133.35 941.646L215.494 1062.58C219.537 1068.53 226.131 1072.25 233.316 1072.63L373.207 1079.96C380.392 1080.34 387.339 1077.33 391.981 1071.83L486.317 960.144C490.653 955.011 492.527 948.238 491.447 941.606L467.409 794.015C466.296 787.18 462.162 781.211 456.156 777.764L333.012 707.098C326.664 703.455 318.96 703.051 312.265 706.011Z" stroke="url(#paint64_linear_474_1031)" stroke-width="4"/>
<path opacity="0.956522" d="M304.332 710.474L173.004 759.772C166.503 762.212 161.453 767.458 159.262 774.047L113.207 912.55C111.066 918.989 111.877 926.045 115.425 931.83L190.406 1054.11C194.143 1060.21 200.501 1064.22 207.61 1064.97L345.704 1079.48C352.813 1080.23 359.865 1077.63 364.787 1072.44L463.555 968.42C468.227 963.499 470.488 956.766 469.733 950.022L453.48 804.971C452.707 798.07 448.858 791.888 443.007 788.15L324.798 712.625C318.695 708.726 311.112 707.929 304.332 710.474Z" stroke="url(#paint65_linear_474_1031)" stroke-width="4"/>
<path opacity="0.971014" d="M295.964 715.42L163.65 756.617C157.003 758.687 151.651 763.657 149.094 770.132L96.8167 902.566C94.2999 908.942 94.7579 916.108 98.066 922.111L165.966 1045.34C169.392 1051.55 175.499 1055.84 182.512 1056.95L318.45 1078.48C325.463 1079.59 332.596 1077.4 337.777 1072.55L440.432 976.337C445.433 971.649 448.083 964.976 447.66 958.134L438.865 816.028C438.435 809.079 434.88 802.698 429.198 798.676L316.09 718.608C310.244 714.469 302.803 713.291 295.964 715.42Z" stroke="url(#paint66_linear_474_1031)" stroke-width="4"/>
<path opacity="0.985507" d="M287.141 720.815L154.322 753.95C147.549 755.639 141.91 760.314 138.993 766.656L81.0046 892.756C78.111 899.048 78.2068 906.309 81.2654 912.523L142.187 1036.29C145.301 1042.62 151.144 1047.16 158.04 1048.63L291.476 1076.99C298.372 1078.46 305.56 1076.68 310.978 1072.17L416.973 983.88C422.294 979.447 425.335 972.853 425.251 965.928L423.565 827.144C423.48 820.163 420.23 813.599 414.729 809.301L306.871 725.009C301.29 720.648 294.012 719.101 287.141 720.815Z" stroke="url(#paint67_linear_474_1031)" stroke-width="4"/>
<path d="M277.838 726.625L144.99 751.761C138.112 753.062 132.201 757.425 128.931 763.613L65.7535 883.15C62.4829 889.339 62.2082 896.68 65.0072 903.095L119.075 1027.02C121.874 1033.43 127.442 1038.23 134.203 1040.04L264.802 1075.03C271.563 1076.84 278.781 1075.48 284.412 1071.32L393.198 991.034C398.83 986.877 402.263 980.382 402.524 973.388L407.58 838.277C407.842 831.282 404.904 824.549 399.599 819.983L297.117 731.79C291.811 727.225 284.715 725.324 277.838 726.625Z" stroke="url(#paint68_linear_474_1031)" stroke-width="4"/>
<defs>
<linearGradient id="paint0_linear_474_1031" x1="1517.01" y1="1333.31" x2="1367.98" y2="392.416" gradientUnits="userSpaceOnUse">
<stop stop-color="#598CA4"/>
<stop offset="1" stop-color="#021B26"/>
</linearGradient>
<linearGradient id="paint1_linear_474_1031" x1="1475.06" y1="1332.71" x2="1376.36" y2="393.667" gradientUnits="userSpaceOnUse">
<stop stop-color="#598CA4"/>
<stop offset="1" stop-color="#021B26"/>
</linearGradient>
<linearGradient id="paint2_linear_474_1031" x1="1433.4" y1="1330.82" x2="1384.42" y2="396.3" gradientUnits="userSpaceOnUse">
<stop stop-color="#598CA4"/>
<stop offset="1" stop-color="#021B26"/>
</linearGradient>
<linearGradient id="paint3_linear_474_1031" x1="1392.1" y1="1327.68" x2="1392.1" y2="400.283" gradientUnits="userSpaceOnUse">
<stop stop-color="#598CA4"/>
<stop offset="1" stop-color="#021B26"/>
</linearGradient>
<linearGradient id="paint4_linear_474_1031" x1="1351.22" y1="1323.31" x2="1399.32" y2="405.584" gradientUnits="userSpaceOnUse">
<stop stop-color="#598CA4"/>
<stop offset="1" stop-color="#021B26"/>
</linearGradient>
<linearGradient id="paint5_linear_474_1031" x1="1310.83" y1="1317.76" x2="1406.01" y2="412.163" gradientUnits="userSpaceOnUse">
<stop stop-color="#598CA4"/>
<stop offset="1" stop-color="#021B26"/>
</linearGradient>
<linearGradient id="paint6_linear_474_1031" x1="1270.99" y1="1311.05" x2="1412.12" y2="419.981" gradientUnits="userSpaceOnUse">
<stop stop-color="#598CA4"/>
<stop offset="1" stop-color="#021B26"/>
</linearGradient>
<linearGradient id="paint7_linear_474_1031" x1="1231.76" y1="1303.23" x2="1417.58" y2="428.993" gradientUnits="userSpaceOnUse">
<stop stop-color="#598CA4"/>
<stop offset="1" stop-color="#021B26"/>
</linearGradient>
<linearGradient id="paint8_linear_474_1031" x1="1193.18" y1="1294.34" x2="1422.33" y2="439.152" gradientUnits="userSpaceOnUse">
<stop stop-color="#598CA4"/>
<stop offset="1" stop-color="#021B26"/>
</linearGradient>
<linearGradient id="paint9_linear_474_1031" x1="1155.32" y1="1284.43" x2="1426.31" y2="450.407" gradientUnits="userSpaceOnUse">
<stop stop-color="#598CA4"/>
<stop offset="1" stop-color="#021B26"/>
</linearGradient>
<linearGradient id="paint10_linear_474_1031" x1="1118.22" y1="1273.56" x2="1429.47" y2="462.706" gradientUnits="userSpaceOnUse">
<stop stop-color="#598CA4"/>
<stop offset="1" stop-color="#021B26"/>
</linearGradient>
<linearGradient id="paint11_linear_474_1031" x1="1081.92" y1="1261.76" x2="1431.77" y2="475.992" gradientUnits="userSpaceOnUse">
<stop stop-color="#598CA4"/>
<stop offset="1" stop-color="#021B26"/>
</linearGradient>
<linearGradient id="paint12_linear_474_1031" x1="1046.48" y1="1249.1" x2="1433.15" y2="490.209" gradientUnits="userSpaceOnUse">
<stop stop-color="#598CA4"/>
<stop offset="1" stop-color="#021B26"/>
</linearGradient>
<linearGradient id="paint13_linear_474_1031" x1="1011.92" y1="1235.63" x2="1433.58" y2="505.296" gradientUnits="userSpaceOnUse">
<stop stop-color="#598CA4"/>
<stop offset="1" stop-color="#021B26"/>
</linearGradient>
<linearGradient id="paint14_linear_474_1031" x1="978.286" y1="1221.41" x2="1433.01" y2="521.193" gradientUnits="userSpaceOnUse">
<stop stop-color="#598CA4"/>
<stop offset="1" stop-color="#021B26"/>
</linearGradient>
<linearGradient id="paint15_linear_474_1031" x1="945.61" y1="1206.49" x2="1431.42" y2="537.835" gradientUnits="userSpaceOnUse">
<stop stop-color="#598CA4"/>
<stop offset="1" stop-color="#021B26"/>
</linearGradient>
<linearGradient id="paint16_linear_474_1031" x1="913.919" y1="1190.94" x2="1428.76" y2="555.159" gradientUnits="userSpaceOnUse">
<stop stop-color="#598CA4"/>
<stop offset="1" stop-color="#021B26"/>
</linearGradient>
<linearGradient id="paint17_linear_474_1031" x1="883.238" y1="1174.81" x2="1425.02" y2="573.099" gradientUnits="userSpaceOnUse">
<stop stop-color="#598CA4"/>
<stop offset="1" stop-color="#021B26"/>
</linearGradient>
<linearGradient id="paint18_linear_474_1031" x1="853.588" y1="1158.18" x2="1420.18" y2="591.588" gradientUnits="userSpaceOnUse">
<stop stop-color="#598CA4"/>
<stop offset="1" stop-color="#021B26"/>
</linearGradient>
<linearGradient id="paint19_linear_474_1031" x1="824.985" y1="1141.09" x2="1414.2" y2="610.559" gradientUnits="userSpaceOnUse">
<stop stop-color="#598CA4"/>
<stop offset="1" stop-color="#021B26"/>
</linearGradient>
<linearGradient id="paint20_linear_474_1031" x1="797.445" y1="1123.62" x2="1407.09" y2="629.945" gradientUnits="userSpaceOnUse">
<stop stop-color="#598CA4"/>
<stop offset="1" stop-color="#021B26"/>
</linearGradient>
<linearGradient id="paint21_linear_474_1031" x1="770.977" y1="1105.83" x2="1398.82" y2="649.678" gradientUnits="userSpaceOnUse">
<stop stop-color="#598CA4"/>
<stop offset="1" stop-color="#021B26"/>
</linearGradient>
<linearGradient id="paint22_linear_474_1031" x1="745.588" y1="1087.78" x2="1389.39" y2="669.689" gradientUnits="userSpaceOnUse">
<stop stop-color="#598CA4"/>
<stop offset="1" stop-color="#021B26"/>
</linearGradient>
<linearGradient id="paint23_linear_474_1031" x1="721.28" y1="1069.53" x2="1378.8" y2="689.912" gradientUnits="userSpaceOnUse">
<stop stop-color="#598CA4"/>
<stop offset="1" stop-color="#021B26"/>
</linearGradient>
<linearGradient id="paint24_linear_474_1031" x1="698.053" y1="1051.15" x2="1367.05" y2="710.279" gradientUnits="userSpaceOnUse">
<stop stop-color="#598CA4"/>
<stop offset="1" stop-color="#021B26"/>
</linearGradient>
<linearGradient id="paint25_linear_474_1031" x1="675.902" y1="1032.69" x2="1354.14" y2="730.724" gradientUnits="userSpaceOnUse">
<stop stop-color="#598CA4"/>
<stop offset="1" stop-color="#021B26"/>
</linearGradient>
<linearGradient id="paint26_linear_474_1031" x1="654.82" y1="1014.23" x2="1340.08" y2="751.181" gradientUnits="userSpaceOnUse">
<stop stop-color="#598CA4"/>
<stop offset="1" stop-color="#021B26"/>
</linearGradient>
<linearGradient id="paint27_linear_474_1031" x1="634.794" y1="995.81" x2="1324.89" y2="771.586" gradientUnits="userSpaceOnUse">
<stop stop-color="#598CA4"/>
<stop offset="1" stop-color="#021B26"/>
</linearGradient>
<linearGradient id="paint28_linear_474_1031" x1="615.811" y1="977.5" x2="1308.57" y2="791.875" gradientUnits="userSpaceOnUse">
<stop stop-color="#598CA4"/>
<stop offset="1" stop-color="#021B26"/>
</linearGradient>
<linearGradient id="paint29_linear_474_1031" x1="597.854" y1="959.354" x2="1291.15" y2="811.988" gradientUnits="userSpaceOnUse">
<stop stop-color="#598CA4"/>
<stop offset="1" stop-color="#021B26"/>
</linearGradient>
<linearGradient id="paint30_linear_474_1031" x1="580.899" y1="941.428" x2="1272.66" y2="831.864" gradientUnits="userSpaceOnUse">
<stop stop-color="#598CA4"/>
<stop offset="1" stop-color="#021B26"/>
</linearGradient>
<linearGradient id="paint31_linear_474_1031" x1="564.925" y1="923.776" x2="1253.11" y2="851.446" gradientUnits="userSpaceOnUse">
<stop stop-color="#598CA4"/>
<stop offset="1" stop-color="#021B26"/>
</linearGradient>
<linearGradient id="paint32_linear_474_1031" x1="549.905" y1="906.451" x2="1232.53" y2="870.676" gradientUnits="userSpaceOnUse">
<stop stop-color="#598CA4"/>
<stop offset="1" stop-color="#021B26"/>
</linearGradient>
<linearGradient id="paint33_linear_474_1031" x1="535.809" y1="889.502" x2="1210.97" y2="889.502" gradientUnits="userSpaceOnUse">
<stop stop-color="#598CA4"/>
<stop offset="1" stop-color="#021B26"/>
</linearGradient>
<linearGradient id="paint34_linear_474_1031" x1="522.604" y1="872.977" x2="1188.44" y2="907.872" gradientUnits="userSpaceOnUse">
<stop stop-color="#598CA4"/>
<stop offset="1" stop-color="#021B26"/>
</linearGradient>
<linearGradient id="paint35_linear_474_1031" x1="510.256" y1="856.922" x2="1164.99" y2="925.738" gradientUnits="userSpaceOnUse">
<stop stop-color="#598CA4"/>
<stop offset="1" stop-color="#021B26"/>
</linearGradient>
<linearGradient id="paint36_linear_474_1031" x1="498.729" y1="841.38" x2="1140.66" y2="943.052" gradientUnits="userSpaceOnUse">
<stop stop-color="#598CA4"/>
<stop offset="1" stop-color="#021B26"/>
</linearGradient>
<linearGradient id="paint37_linear_474_1031" x1="487.984" y1="826.391" x2="1115.49" y2="959.771" gradientUnits="userSpaceOnUse">
<stop stop-color="#598CA4"/>
<stop offset="1" stop-color="#021B26"/>
</linearGradient>
<linearGradient id="paint38_linear_474_1031" x1="477.979" y1="811.992" x2="1089.52" y2="975.855" gradientUnits="userSpaceOnUse">
<stop stop-color="#598CA4"/>
<stop offset="1" stop-color="#021B26"/>
</linearGradient>
<linearGradient id="paint39_linear_474_1031" x1="468.673" y1="798.22" x2="1062.81" y2="991.266" gradientUnits="userSpaceOnUse">
<stop stop-color="#598CA4"/>
<stop offset="1" stop-color="#021B26"/>
</linearGradient>
<linearGradient id="paint40_linear_474_1031" x1="460.02" y1="785.107" x2="1035.39" y2="1005.97" gradientUnits="userSpaceOnUse">
<stop stop-color="#598CA4"/>
<stop offset="1" stop-color="#021B26"/>
</linearGradient>
<linearGradient id="paint41_linear_474_1031" x1="451.976" y1="772.681" x2="1007.31" y2="1019.93" gradientUnits="userSpaceOnUse">
<stop stop-color="#598CA4"/>
<stop offset="1" stop-color="#021B26"/>
</linearGradient>
<linearGradient id="paint42_linear_474_1031" x1="444.493" y1="760.969" x2="978.639" y2="1033.13" gradientUnits="userSpaceOnUse">
<stop stop-color="#598CA4"/>
<stop offset="1" stop-color="#021B26"/>
</linearGradient>
<linearGradient id="paint43_linear_474_1031" x1="437.522" y1="749.994" x2="949.411" y2="1045.53" gradientUnits="userSpaceOnUse">
<stop stop-color="#598CA4"/>
<stop offset="1" stop-color="#021B26"/>
</linearGradient>
<linearGradient id="paint44_linear_474_1031" x1="431.016" y1="739.777" x2="919.684" y2="1057.12" gradientUnits="userSpaceOnUse">
<stop stop-color="#598CA4"/>
<stop offset="1" stop-color="#021B26"/>
</linearGradient>
<linearGradient id="paint45_linear_474_1031" x1="424.923" y1="730.335" x2="889.511" y2="1067.88" gradientUnits="userSpaceOnUse">
<stop stop-color="#598CA4"/>
<stop offset="1" stop-color="#021B26"/>
</linearGradient>
<linearGradient id="paint46_linear_474_1031" x1="419.195" y1="721.682" x2="858.947" y2="1077.79" gradientUnits="userSpaceOnUse">
<stop stop-color="#598CA4"/>
<stop offset="1" stop-color="#021B26"/>
</linearGradient>
<linearGradient id="paint47_linear_474_1031" x1="413.781" y1="713.829" x2="828.045" y2="1086.83" gradientUnits="userSpaceOnUse">
<stop stop-color="#598CA4"/>
<stop offset="1" stop-color="#021B26"/>
</linearGradient>
<linearGradient id="paint48_linear_474_1031" x1="408.632" y1="706.785" x2="796.861" y2="1095.01" gradientUnits="userSpaceOnUse">
<stop stop-color="#598CA4"/>
<stop offset="1" stop-color="#021B26"/>
</linearGradient>
<linearGradient id="paint49_linear_474_1031" x1="403.694" y1="700.552" x2="765.446" y2="1102.32" gradientUnits="userSpaceOnUse">
<stop stop-color="#598CA4"/>
<stop offset="1" stop-color="#021B26"/>
</linearGradient>
<linearGradient id="paint50_linear_474_1031" x1="398.919" y1="695.134" x2="733.858" y2="1108.75" gradientUnits="userSpaceOnUse">
<stop stop-color="#598CA4"/>
<stop offset="1" stop-color="#021B26"/>
</linearGradient>
<linearGradient id="paint51_linear_474_1031" x1="394.257" y1="690.53" x2="702.148" y2="1114.31" gradientUnits="userSpaceOnUse">
<stop stop-color="#598CA4"/>
<stop offset="1" stop-color="#021B26"/>
</linearGradient>
<linearGradient id="paint52_linear_474_1031" x1="389.659" y1="686.735" x2="670.37" y2="1118.99" gradientUnits="userSpaceOnUse">
<stop stop-color="#598CA4"/>
<stop offset="1" stop-color="#021B26"/>
</linearGradient>
<linearGradient id="paint53_linear_474_1031" x1="385.076" y1="683.741" x2="638.576" y2="1122.81" gradientUnits="userSpaceOnUse">
<stop stop-color="#598CA4"/>
<stop offset="1" stop-color="#021B26"/>
</linearGradient>
<linearGradient id="paint54_linear_474_1031" x1="380.46" y1="681.54" x2="606.816" y2="1125.79" gradientUnits="userSpaceOnUse">
<stop stop-color="#598CA4"/>
<stop offset="1" stop-color="#021B26"/>
</linearGradient>
<linearGradient id="paint55_linear_474_1031" x1="375.765" y1="680.118" x2="575.14" y2="1127.92" gradientUnits="userSpaceOnUse">
<stop stop-color="#598CA4"/>
<stop offset="1" stop-color="#021B26"/>
</linearGradient>
<linearGradient id="paint56_linear_474_1031" x1="370.947" y1="679.46" x2="543.6" y2="1129.24" gradientUnits="userSpaceOnUse">
<stop stop-color="#598CA4"/>
<stop offset="1" stop-color="#021B26"/>
</linearGradient>
<linearGradient id="paint57_linear_474_1031" x1="365.96" y1="679.548" x2="512.239" y2="1129.75" gradientUnits="userSpaceOnUse">
<stop stop-color="#598CA4"/>
<stop offset="1" stop-color="#021B26"/>
</linearGradient>
<linearGradient id="paint58_linear_474_1031" x1="360.764" y1="680.362" x2="481.104" y2="1129.48" gradientUnits="userSpaceOnUse">
<stop stop-color="#598CA4"/>
<stop offset="1" stop-color="#021B26"/>
</linearGradient>
<linearGradient id="paint59_linear_474_1031" x1="355.316" y1="681.879" x2="450.238" y2="1128.45" gradientUnits="userSpaceOnUse">
<stop stop-color="#598CA4"/>
<stop offset="1" stop-color="#021B26"/>
</linearGradient>
<linearGradient id="paint60_linear_474_1031" x1="349.579" y1="684.073" x2="419.684" y2="1126.7" gradientUnits="userSpaceOnUse">
<stop stop-color="#598CA4"/>
<stop offset="1" stop-color="#021B26"/>
</linearGradient>
<linearGradient id="paint61_linear_474_1031" x1="343.515" y1="686.92" x2="389.48" y2="1124.25" gradientUnits="userSpaceOnUse">
<stop stop-color="#598CA4"/>
<stop offset="1" stop-color="#021B26"/>
</linearGradient>
<linearGradient id="paint62_linear_474_1031" x1="337.091" y1="690.388" x2="359.665" y2="1121.12" gradientUnits="userSpaceOnUse">
<stop stop-color="#598CA4"/>
<stop offset="1" stop-color="#021B26"/>
</linearGradient>
<linearGradient id="paint63_linear_474_1031" x1="330.273" y1="694.447" x2="330.273" y2="1117.37" gradientUnits="userSpaceOnUse">
<stop stop-color="#598CA4"/>
<stop offset="1" stop-color="#021B26"/>
</linearGradient>
<linearGradient id="paint64_linear_474_1031" x1="323.031" y1="699.064" x2="301.337" y2="1113.01" gradientUnits="userSpaceOnUse">
<stop stop-color="#598CA4"/>
<stop offset="1" stop-color="#021B26"/>
</linearGradient>
<linearGradient id="paint65_linear_474_1031" x1="315.337" y1="704.207" x2="272.887" y2="1108.09" gradientUnits="userSpaceOnUse">
<stop stop-color="#598CA4"/>
<stop offset="1" stop-color="#021B26"/>
</linearGradient>
<linearGradient id="paint66_linear_474_1031" x1="307.164" y1="709.838" x2="244.95" y2="1102.64" gradientUnits="userSpaceOnUse">
<stop stop-color="#598CA4"/>
<stop offset="1" stop-color="#021B26"/>
</linearGradient>
<linearGradient id="paint67_linear_474_1031" x1="298.491" y1="715.923" x2="217.554" y2="1096.7" gradientUnits="userSpaceOnUse">
<stop stop-color="#598CA4"/>
<stop offset="1" stop-color="#021B26"/>
</linearGradient>
<linearGradient id="paint68_linear_474_1031" x1="289.296" y1="722.421" x2="190.717" y2="1090.32" gradientUnits="userSpaceOnUse">
<stop stop-color="#598CA4"/>
<stop offset="1" stop-color="#021B26"/>
</linearGradient>
</defs>
</svg>
